#!OML:ASF H:\LiuWeirdWalks\Patient Classification 1\Patient 1\Session 1\male.ASF
:FULLY-SPECIFIED
:DEGREES
290
root 1.18568 17.8201 11.2182 -0.591464 2.10317 5.91955
lowerback 6.7824 1.2149 -6.16435
upperback 0.198117 1.18243 1.16444
thorax -3.75523 0.707173 4.56411
lowerneck -15.5356 -0.400297 2.64736
upperneck 23.1963 0.574984 -7.16407
head 9.96195 -0.327561 -2.89421
rclavicle -1.07344e-014 -2.46493e-014
rhumerus -44.5598 -10.5015 -74.6153
rradius 27.1756
rwrist -12.5862
rhand -18.9429 -4.93515
rfingers 7.12502
rthumb 7.36029 -34.7871
lclavicle -1.07344e-014 -2.46493e-014
lhumerus -36.5152 11.0689 83.8218
lradius 17.7179
lwrist 9.108
lhand -15.715 -2.92081
lfingers 7.12502
lthumb 10.4751 26.7982
rfemur -23.4876 -11.7892 10.7066
rtibia 72.2677
rfoot -5.26669 -16.1313
rtoes 1.81327
lfemur -10.4134 -4.57298 -29.4924
ltibia 30.7927
lfoot -11.6802 12.1692
ltoes -8.44045
291
root 1.1894 17.8137 11.4932 -0.612991 2.39466 6.31813
lowerback 6.968 1.84898 -5.77168
upperback 0.253375 2.04536 1.10233
thorax -3.89333 1.13073 4.18074
lowerneck -15.8475 -1.31259 0.778445
upperneck 23.4978 -0.40965 -6.29052
head 10.0894 -0.852955 -2.40511
rclavicle -4.96962e-015 1.35174e-014
rhumerus -46.1292 -13.2169 -72.3791
rradius 25.8431
rwrist -11.2339
rhand -18.3769 -5.25231
rfingers 7.12502
rthumb 7.90661 -35.0844
lclavicle -4.96962e-015 1.35174e-014
lhumerus -34.843 8.48057 86.0591
lradius 18.3699
lwrist 9.87177
lhand -16.1219 -2.63574
lfingers 7.12502
lthumb 10.0826 27.1027
rfemur -25.093 -11.8626 10.6184
rtibia 71.2262
rfoot -6.8835 -16.4528
rtoes 1.09596
lfemur -9.05578 -4.65128 -30.022
ltibia 30.2637
lfoot -12.2112 12.3008
ltoes -8.60206
292
root 1.19066 17.8073 11.7687 -0.614004 2.7189 6.7383
lowerback 7.25191 2.60292 -5.30764
upperback 0.22596 3.06757 1.03441
thorax -4.17167 1.63607 3.72045
lowerneck -15.9689 -2.39479 -1.38157
upperneck 23.8309 -1.58504 -5.2658
head 10.2257 -1.47129 -1.84192
rclavicle -1.3418e-014 4.77083e-015
rhumerus -48.1344 -16.1129 -69.7174
rradius 24.6571
rwrist -9.78103
rhand -17.6449 -5.58546
rfingers 7.12502
rthumb 8.613 -35.3898
lclavicle -1.3418e-014 4.77083e-015
lhumerus -33.4204 5.39891 88.4769
lradius 19.138
lwrist 10.7655
lhand -16.504 -2.32644
lfingers 7.12502
lthumb 9.71394 27.4296
rfemur -26.6104 -11.9372 10.5146
rtibia 69.9058
rfoot -8.14469 -16.8597
rtoes 0.72515
lfemur -7.65384 -4.71901 -30.5534
ltibia 29.6124
lfoot -12.6708 12.3642
ltoes -8.80236
293
root 1.19031 17.803 12.0448 -0.564137 3.06516 7.14948
lowerback 7.55059 3.23456 -4.9508
upperback 0.116237 3.91836 0.96741
thorax -4.51529 2.0591 3.32837
lowerneck -15.8456 -3.33002 -3.28663
upperneck 24.1253 -2.60367 -4.36314
head 10.34 -2.00609 -1.34453
rclavicle -2.49475e-014 -1.11319e-014
rhumerus -50.3164 -18.6234 -67.076
rradius 23.516
rwrist -8.16682
rhand -16.759 -5.84635
rfingers 7.12502
rthumb 9.46786 -35.6137
lclavicle -2.49475e-014 -1.11319e-014
lhumerus -32.3695 2.42282 90.6462
lradius 20.1144
lwrist 11.8156
lhand -16.845 -2.00153
lfingers 7.12502
lthumb 9.38487 27.7695
rfemur -28.0603 -12.0229 10.4297
rtibia 68.2979
rfoot -9.12079 -17.3903
rtoes 0.574078
lfemur -6.22931 -4.79193 -31.0534
ltibia 28.8199
lfoot -13.046 12.3709
ltoes -9.03225
294
root 1.18863 17.8022 12.3219 -0.444617 3.42389 7.5357
lowerback 7.79041 3.68647 -4.73864
upperback -0.0420152 4.52176 0.906369
thorax -4.8532 2.36131 3.04823
lowerneck -15.5928 -4.05185 -4.84958
upperneck 24.3613 -3.39348 -3.61562
head 10.4288 -2.42248 -0.92794
rclavicle -4.54968e-014 2.38542e-014
rhumerus -52.4911 -20.6484 -64.5997
rradius 22.4124
rwrist -6.4362
rhand -15.7452 -6.06479
rfingers 7.12502
rthumb 10.446 -35.7853
lclavicle -4.54968e-014 2.38542e-014
lhumerus -31.5898 -0.238221 92.4643
lradius 21.2793
lwrist 12.9469
lhand -17.1345 -1.6826
lfingers 7.12502
lthumb 9.10557 28.1008
rfemur -29.4502 -12.1195 10.3791
rtibia 66.3966
rfoot -9.77654 -18.0873
rtoes 0.917473
lfemur -4.80019 -4.86313 -31.5002
ltibia 27.8762
lfoot -13.3301 12.3114
ltoes -9.2795
295
root 1.18625 17.803 12.6002 -0.240331 3.78532 7.90877
lowerback 7.86417 3.803 -4.81833
upperback -0.16773 4.66065 0.834532
thorax -5.04004 2.4366 2.98952
lowerneck -15.4962 -4.34734 -5.56215
upperneck 24.51 -3.70534 -3.28048
head 10.4948 -2.59211 -0.735788
rclavicle 1.8313e-014 -1.90833e-014
rhumerus -54.2325 -22.0385 -62.6662
rradius 21.2429
rwrist -4.44316
rhand -14.6489 -6.22615
rfingers 7.12502
rthumb 11.5034 -35.8905
lclavicle 1.8313e-014 -1.90833e-014
lhumerus -30.8756 -2.15387 93.5976
lradius 22.6334
lwrist 14.1393
lhand -17.3514 -1.37266
lfingers 7.12502
lthumb 8.8963 28.4198
rfemur -30.7901 -12.2289 10.3416
rtibia 64.2119
rfoot -10.1917 -18.933
rtoes 1.61819
lfemur -3.38786 -4.93556 -31.9099
ltibia 26.7898
lfoot -13.5201 12.1987
ltoes -9.54461
